DBRep_DrawableShape

CASCADE Topology V1, (c) Matra-Datavision
Locations 15
1
              1               0               0               0 
              0               1               0               0 
              0               0               1               0 
1
              1               0               0               0 
              0               1               0               0 
              0               0               1               0 
1
              1               0               0               0 
              0               1               0               0 
              0               0               1               0 
2  2 1 3 1 0
1
              1               0               0               0 
              0               1               0               0 
              0               0               1             0.5 
2  5 -1 0
1
              1               0               0               0 
              0               1               0               0 
              0               0               1               0 
1
              1               0               0               0 
              0               1               0               0 
              0               0               1               0 
2  7 1 8 1 0
1
              1               0               0               0 
              0               1               0               0 
              0               0               1             0.5 
2  10 -1 0
2  8 -1 7 -1 0
2  5 1 2 1 3 1 0
2  10 1 7 1 8 1 0
2  8 -1 7 -1 10 -1 0
Curve2ds 10
1 0 0 0 -1 
1 6.2831853071795862 0 0 -1 
2 0 0 1 0 -0 1 3.2400000000000002
1 0 0 1 0 
1 0 -0.5 1 0 
2 0 0 1 0 -0 1 0.65000000000000002
1 0 0 1 0 
1 0 -0.5 1 0 
1 0 0 0 -1 
1 6.2831853071795862 0 0 -1 
Curves 4
1 3.2400000000000002 -7.9000000000000002e-16 0 0 0 1 
2 0 0 0 0 0 1 1 0 -0 -0 1 0 3.2400000000000002
2 0 0 0 0 0 1 1 0 -0 -0 1 0 0.65000000000000002
1 0.65000000000000002 -1.6000000000000001e-16 0 0 0 1 
Polygon3D 0
PolygonOnTriangulations 0
Surfaces 4
2 0 0 0 -0 -0 -1 1 0 -0 -0 1 -0 3.2400000000000002
1 0 0 0 0 0 1 1 0 -0 -0 1 0 
1 0 0 0 0 0 1 1 0 -0 -0 1 0 
2 0 0 0 -0 -0 -1 1 0 -0 -0 1 -0 0.65000000000000002
Triangulations 0

TShapes 22
Ve
1e-07
3.24 -1e-15 0
0 0

0101101
*
Ed
 1e-07 1 1 0
1  1 0 0 0.5
3  1 2CN 1 0 0 0.5
0

0101000
+22 0 -22 5 *
Ed
 1e-07 1 1 0
1  2 0 0 6.28318530717959
2  3 2 0 0 6.28318530717959
2  4 1 0 0 6.28318530717959
2  5 1 6 0 6.28318530717959
0

0101000
+22 0 -22 0 *
Wi

0101100
+21 0 -21 0 -20 0 +20 5 *
Fa
0  1e-07 1 0

0111000
+19 0 *
Wi

0101100
+20 4 *
Ve
1e-07
0.65 -0 0
0 0

0101101
*
Ed
 1e-07 1 1 0
1  3 0 0 6.28318530717959
2  6 3 0 0 6.28318530717959
2  7 4 0 0 6.28318530717959
2  8 4 11 0 6.28318530717959
0

0101000
+16 12 -16 12 *
Wi

0101100
-15 9 *
Fa
0  1e-07 2 4

0111000
+17 0 +14 0 *
Wi

0101100
+20 13 *
Ve
1e-07
0.65 -0 0.5
0 0

0101101
*
Ed
 1e-07 1 1 0
1  3 0 0 6.28318530717959
2  6 3 0 0 6.28318530717959
2  7 4 0 0 6.28318530717959
2  8 4 11 0 6.28318530717959
0

0101000
+11 15 -11 15 *
Wi

0101100
-10 14 *
Fa
0  1e-07 2 13

0111000
+12 0 +9 0 *
Ed
 1e-07 1 1 0
1  4 0 0 0.5
3  9 10CN 4 0 0 0.5
0

0101000
+16 12 -11 12 *
Wi

0101100
+7 9 -7 9 -15 9 +10 14 *
Fa
0  1e-07 4 9

0111000
+6 0 *
Sh

0101100
-18 4 -13 0 +8 0 +5 0 *
So

0100000
+4 0 *
Co

0100000
+3 0 *
Co

1100000
+2 1 *

+1 0 