DBRep_DrawableShape

CASCADE Topology V1, (c) Matra-Datavision
Locations 12
1
              1               0               0               0 
              0               1               0               0 
              0               0               1               0 
1
              1               0               0               0 
              0               1               0               0 
              0               0               1               0 
1
              1               0               0              -6 
              0               1               0              -6 
              0               0               1               0 
2  2 1 3 1 0
1
              1               0               0               0 
              0               1               0               0 
              0               0               1             0.5 
1
              1               0               0               0 
              0               1               0               0 
              0               0               1               0 
1
              1               0               0               0 
              0               1               0               0 
              0               0               1               0 
2  5 1 6 1 7 1 0
2  5 -1 0
2  7 -1 6 -1 5 -1 0
2  6 1 7 1 0
2  7 -1 6 -1 0
Curve2ds 29
1 0 0 1 0 
1 0 0 1 0 
1 0.5 0 0 -1 
1 0 0 0 1 
1 0 -12 1 0 
1 0 0 1 0 
1 0 0 0 -1 
1 0 0 0 1 
1 0 0 0 1 
1 0 0 1 0 
1 0 0 1 0 
1 0 12 1 0 
1 0.5 0 0 1 
1 0 0 1 0 
1 0.5 0 0 1 
1 0 12 1 0 
1 0.5 0 0 -1 
1 12 0 0 1 
2 0 0 1 0 -0 1 3.3399999999999999
1 0 0 1 0 
1 0 -0.5 1 0 
1 0 0 0 1 
1 0 12 1 0 
1 0 -12 1 0 
1 0 12 1 0 
1 0 0 0 -1 
1 12 0 0 1 
1 0 0 0 -1 
1 6.2831853071795862 0 0 -1 
Curves 14
1 0 0 0 0 0 1 
1 0 0 0.5 -0 1 0 
1 0 12 0 0 0 1 
1 0 0 0 -0 1 0 
1 0 0 0 1 0 -0 
1 12 0 0 0 0 1 
1 0 0 0.5 1 0 -0 
1 0 12 0.5 1 0 -0 
1 12 0 0.5 -0 1 0 
2 0 0 0 0 0 1 1 0 -0 -0 1 0 3.3399999999999999
1 0 12 0 1 0 -0 
1 12 12 0 0 0 1 
1 12 0 0 -0 1 0 
1 3.3399999999999999 -8.2000000000000001e-16 0 0 0 1 
Polygon3D 0
PolygonOnTriangulations 0
Surfaces 8
1 0 0 0 1 0 -0 0 0 1 0 -1 0 
1 0 0 0 -0 1 0 0 0 1 1 0 -0 
1 0 0 0.5 0 0 1 1 0 -0 -0 1 0 
1 0 12 0 -0 1 0 0 0 1 1 0 -0 
1 0 0 0 0 0 1 1 0 -0 -0 1 0 
1 12 0 0 1 0 -0 0 0 1 0 -1 0 
1 0 0 0 0 0 1 1 0 -0 -0 1 0 
2 0 0 0 -0 -0 -1 1 0 -0 -0 1 -0 3.3399999999999999
Triangulations 0

TShapes 45
Ve
1e-07
0 0 0.5
0 0

0101101
*
Ve
1e-07
0 0 0
0 0

0101101
*
Ed
 1e-07 1 1 0
1  1 0 0 0.5
2  1 1 0 0 0.5
2  2 2 0 0 0.5
0

0101000
-45 0 +44 0 *
Ve
1e-07
0 12 0.5
0 0

0101101
*
Ed
 1e-07 1 1 0
1  2 0 0 12
2  3 1 0 0 12
2  4 3 0 0 12
0

0101000
-42 0 +45 0 *
Ve
1e-07
0 12 0
0 0

0101101
*
Ed
 1e-07 1 1 0
1  3 0 0 0.5
2  5 1 0 0 0.5
2  6 4 0 0 0.5
0

0101000
-42 0 +40 0 *
Ed
 1e-07 1 1 0
1  4 0 0 12
2  7 1 0 0 12
2  8 5 0 0 12
0

0101000
-40 0 +44 0 *
Wi

0101100
-43 0 -41 0 +39 0 +38 0 *
Fa
0  1e-07 1 0

0111000
+37 0 *
Ve
1e-07
12 0 0
0 0

0101101
*
Ed
 1e-07 1 1 0
1  5 0 0 12
2  9 2 0 0 12
2  10 5 0 0 12
0

0101000
-35 0 +44 0 *
Ve
1e-07
12 0 0.5
0 0

0101101
*
Ed
 1e-07 1 1 0
1  6 0 0 0.5
2  11 6 0 0 0.5
2  12 2 0 0 0.5
0

0101000
-33 0 +35 0 *
Ed
 1e-07 1 1 0
1  7 0 0 12
2  13 2 0 0 12
2  14 3 0 0 12
0

0101000
-33 0 +45 0 *
Wi

0101100
-34 0 -32 0 +31 0 +43 0 *
Fa
0  1e-07 2 0

0111000
+30 0 *
Ve
1e-07
12 12 0.5
0 0

0101101
*
Ed
 1e-07 1 1 0
1  8 0 0 12
2  15 4 0 0 12
2  16 3 0 0 12
0

0101000
-28 0 +42 0 *
Ed
 1e-07 1 1 0
1  9 0 0 12
2  17 6 0 0 12
2  18 3 0 0 12
0

0101000
-28 0 +33 0 *
Wi

0101100
-41 4 -27 4 +31 4 +26 4 *
Ve
1e-07
3.34 -1e-15 0.5
0 0

0101101
*
Ed
 1e-07 1 1 0
1  10 0 0 6.28318530717959
2  19 7 0 0 6.28318530717959
2  20 8 0 0 6.28318530717959
2  21 8 9 0 6.28318530717959
0

0101000
+24 10 -24 10 *
Wi

0101100
-23 8 *
Fa
0  1e-07 3 4

0111000
+25 0 +22 0 *
Ve
1e-07
12 12 0
0 0

0101101
*
Ed
 1e-07 1 1 0
1  11 0 0 12
2  22 4 0 0 12
2  23 5 0 0 12
0

0101000
-20 0 +40 0 *
Ed
 1e-07 1 1 0
1  12 0 0 0.5
2  24 6 0 0 0.5
2  25 4 0 0 0.5
0

0101000
-28 0 +20 0 *
Wi

0101100
-19 0 -18 0 +27 0 +39 0 *
Fa
0  1e-07 4 0

0111000
+17 0 *
Ed
 1e-07 1 1 0
1  13 0 0 12
2  26 6 0 0 12
2  27 5 0 0 12
0

0101000
-20 0 +35 0 *
Wi

0101100
-38 4 -19 4 +34 4 +15 4 *
Ve
1e-07
3.34 -1e-15 0
0 0

0101101
*
Ed
 1e-07 1 1 0
1  10 0 0 6.28318530717959
2  19 7 0 0 6.28318530717959
2  20 8 0 0 6.28318530717959
2  21 8 9 0 6.28318530717959
0

0101000
+13 12 -13 12 *
Wi

0101100
-12 11 *
Fa
0  1e-07 5 4

0111000
+14 0 +11 0 *
Wi

0101100
-32 0 -26 0 +18 0 +15 0 *
Fa
0  1e-07 6 0

0111000
+9 0 *
Ed
 1e-07 1 1 0
1  14 0 0 0.5
3  28 29CN 8 0 0 0.5
0

0101000
+13 12 -24 12 *
Wi

0101100
+7 11 -7 11 -12 11 +23 8 *
Fa
0  1e-07 8 11

0111000
+6 0 *
Sh

0101100
-36 4 -29 4 +21 0 +16 4 -10 0 +8 4 +5 0 *
So

0100000
+4 0 *
Co

0100000
+3 0 *
Co

1100000
+2 1 *

+1 0 